<?xml version="1.0" encoding="UTF-8"?>
<svg width="51px" height="51px" viewBox="0 0 51 51" version="1.1" xmlns="http://www.w3.org/2000/svg" xmlns:xlink="http://www.w3.org/1999/xlink">
    <title>facebook-footer-icon</title>
    <g id="Page-1" stroke="none" stroke-width="1" fill="none" fill-rule="evenodd">
        <g id="facebook-footer-icon" transform="translate(0.069238, 0.900700)" fill="#FFFFFF">
            <rect id="Rectangle-Copy-80" opacity="0.01" x="0" y="0" width="50" height="50"></rect>
            <g id="facebook-white" transform="translate(0.999931, 1.000000)" fill-rule="nonzero">
                <path d="M41.3379924,-4.87230697e-15 L6.66241904,-4.87230697e-15 C4.89544603,-4.87230697e-15 3.2008291,0.701854928 1.95137764,1.95128067 C0.701926184,3.2007064 0,4.89530888 0,6.66228189 L0,41.3378553 C0,43.1048045 0.701978614,44.7993717 1.95142613,46.0487678 C3.20087364,47.2981639 4.89546979,48 6.66241904,48 L26.8300195,48 L26.8700653,29.4801757 L21.2432424,29.4801757 L21.2432424,22.4798631 L26.8700653,22.4798631 L26.8700653,17.3194369 C26.8700653,11.3332164 30.2767036,8.07962994 35.2633968,8.07962994 C36.9450342,8.07219921 38.6256538,8.16365789 40.296554,8.35353244 L40.296554,14.613628 L36.843287,14.613628 C34.1297432,14.613628 33.609888,15.9932891 33.609888,18.0129429 L33.609888,22.4798631 L40.0699933,22.4798631 L39.2299909,29.4799837 L33.6098606,29.4799837 L33.6697922,48 L41.3379924,48 C45.0173808,48 48.0001371,45.0170516 48.0001371,41.3376633 L48.0001371,6.66228189 C48.0001371,4.89535195 47.2982678,3.20078258 46.0488725,1.95136157 C44.7994773,0.701940568 43.1049223,-4.87230697e-15 41.3379924,-4.87230697e-15 Z" id="Path"></path>
            </g>
        </g>
    </g>
</svg>