<?xml version="1.0" encoding="UTF-8"?>
<svg width="51px" height="51px" viewBox="0 0 51 51" version="1.1" xmlns="http://www.w3.org/2000/svg" xmlns:xlink="http://www.w3.org/1999/xlink">
    <title>instagram-footer-icon</title>
    <g id="Page-1" stroke="none" stroke-width="1" fill="none" fill-rule="evenodd">
        <g id="instagram-footer-icon" transform="translate(0.274718, 0.900700)" fill="#FFFFFF">
            <rect id="Rectangle" opacity="0.01" x="0" y="0" width="50" height="50"></rect>
            <g id="instagram-white" transform="translate(1.000000, 1.000000)" fill-rule="nonzero">
                <path d="M24.0003017,15.9941486 C19.5787921,15.9941486 15.9944503,19.5784903 15.9944503,24 C15.9944503,28.4215097 19.5787921,32.0058514 24.0003017,32.0058514 C28.4218114,32.0058514 32.0061531,28.4215097 32.0061531,24 C32.0000192,19.5810336 28.4192681,16.0002825 24.0003017,15.9941486 L24.0003017,15.9941486 Z" id="Path"></path>
                <path d="M42.4025966,0 L5.59740343,0 C2.50605543,0 0,2.50605543 0,5.59740343 L0,42.4025966 C0,45.4939446 2.50605543,48 5.59740343,48 L42.4025966,48 C45.4939446,48 48,45.4939446 48,42.4025966 L48,5.59740343 C48,2.50605543 45.4939446,0 42.4025966,0 Z M24.000384,37.06848 C16.7830739,37.06848 10.932288,31.2176941 10.932288,24.000384 C10.932288,16.7830739 16.7830739,10.932288 24.000384,10.932288 C31.2176941,10.932288 37.06848,16.7830739 37.06848,24.000384 C37.0601517,31.2142416 31.2142416,37.0601517 24.000384,37.06848 Z M38.3531794,12.6676114 C36.4100662,12.6676872 34.8348003,11.0925441 34.8347246,9.14943086 C34.8346488,7.20631764 36.4097919,5.63105175 38.3529051,5.63097601 C40.2960184,5.63090026 41.8712843,7.20604335 41.87136,9.14915657 C41.8712843,11.0922071 40.2962299,12.6673842 38.3531794,12.6676114 L38.3531794,12.6676114 Z" id="Shape"></path>
            </g>
        </g>
    </g>
</svg>