<?xml version="1.0" encoding="UTF-8"?>
<svg width="51px" height="51px" viewBox="0 0 51 51" version="1.1" xmlns="http://www.w3.org/2000/svg" xmlns:xlink="http://www.w3.org/1999/xlink">
    <title>pinterest-footer-icon</title>
    <g id="Page-1" stroke="none" stroke-width="1" fill="none" fill-rule="evenodd">
        <g id="pinterest-footer-icon" transform="translate(0.863758, 0.900700)" fill="#FFFFFF">
            <rect id="Rectangle-Copy-96" opacity="0.01" x="0" y="0" width="50" height="50"></rect>
            <g id="pinterest-white" transform="translate(1.000000, 1.000000)" fill-rule="nonzero">
                <path d="M42.1961143,0 L5.80413257,0 C4.26477421,0 2.7884577,0.611476236 1.69996697,1.69996697 C0.611476236,2.7884577 0,4.26477421 0,5.80413257 L0,42.1961143 C0,43.7354433 0.611512946,45.2117217 1.70000604,46.3001685 C2.78849914,47.3886153 4.2648036,48 5.80413257,48 L42.1961143,48 C45.4015119,48 48,45.4015119 48,42.1961143 L48,5.80413257 C48,4.2648036 47.3886153,2.78849914 46.3001685,1.70000604 C45.2117217,0.611512946 43.7354433,0 42.1961143,0 Z M25.936896,30.7149531 C24.4528936,30.4635561 23.0680427,29.8044117 21.9371246,28.8111909 C21.1550811,32.9143131 20.1994149,36.8477623 17.3683749,38.9025737 C16.4934034,32.7009737 18.6509623,28.0428069 19.6531749,23.0985051 C17.9452251,20.2234149 19.8585051,14.4367543 23.4606994,15.862848 C27.8943634,17.6160549 19.6224274,26.5527771 25.1753966,27.668928 C30.9730011,28.8342857 33.3396206,17.6094994 29.7441737,13.9585097 C24.5496686,8.687232 14.6237623,13.8386743 15.8442789,21.3846857 C16.1416594,23.2295314 18.048,23.7894034 16.605696,26.3349394 C13.2813531,25.5987291 12.2894811,22.9765851 12.4170514,19.4809234 C12.8324296,14.0548735 17.0919222,9.71475074 22.5092297,9.19770514 C28.7704594,8.49698743 34.6470034,11.4968503 35.4582583,17.3863131 C36.3706971,24.0333257 32.6314149,31.2317623 25.936896,30.7149531 Z" id="Shape"></path>
            </g>
        </g>
    </g>
</svg>