<?xml version="1.0" encoding="UTF-8"?>
<svg width="116px" height="15px" viewBox="0 0 116 15" version="1.1" xmlns="http://www.w3.org/2000/svg" xmlns:xlink="http://www.w3.org/1999/xlink">
    <title>rating-g</title>
    <g id="Page-1" stroke="none" stroke-width="1" fill="none" fill-rule="evenodd">
        <g id="Artboard" transform="translate(-112.000000, -917.000000)" fill="#3FAE29" fill-rule="nonzero">
            <g id="rating-g" transform="translate(112.000000, 917.000000)">
                <polygon id="Path" points="7.06512146 0 9.08372759 5.04651533 14.1302429 5.04651533 10.0930307 8.57907606 11.6069853 14.1302429 7.06512146 10.5976822 2.52325767 14.1302429 4.03721226 8.57907606 0 5.04651533 5.04651533 5.04651533"></polygon>
                <polygon id="Path-Copy" points="32.4990018 0 34.5176079 5.04651533 39.5641232 5.04651533 35.526911 8.57907606 37.0408656 14.1302429 32.4990018 10.5976822 27.957138 14.1302429 29.4710926 8.57907606 25.4338803 5.04651533 30.4803957 5.04651533"></polygon>
                <polygon id="Path-Copy-2" points="57.9328821 0 59.9514882 5.04651533 64.9980036 5.04651533 60.9607913 8.57907606 62.4747459 14.1302429 57.9328821 10.5976822 53.3910183 14.1302429 54.9049729 8.57907606 50.8677606 5.04651533 55.914276 5.04651533"></polygon>
                <polygon id="Path-Copy-3" points="83.3667624 0 85.3853686 5.04651533 90.4318839 5.04651533 86.3946716 8.57907606 87.9086262 14.1302429 83.3667624 10.5976822 78.8248986 14.1302429 80.3388532 8.57907606 76.301641 5.04651533 81.3481563 5.04651533"></polygon>
                <polygon id="Path-Copy-4" points="108.800643 0 110.819249 5.04651533 115.865764 5.04651533 111.828552 8.57907606 113.342507 14.1302429 108.800643 10.5976822 104.258779 14.1302429 105.772734 8.57907606 101.735521 5.04651533 106.782037 5.04651533"></polygon>
            </g>
        </g>
    </g>
</svg>