<?xml version="1.0" encoding="UTF-8"?>
<svg width="51px" height="51px" viewBox="0 0 51 51" version="1.1" xmlns="http://www.w3.org/2000/svg" xmlns:xlink="http://www.w3.org/1999/xlink">
    <title>twitter-footer-icon</title>
    <g id="Page-1" stroke="none" stroke-width="1" fill="none" fill-rule="evenodd">
        <g id="twitter-footer-icon" transform="translate(0.480198, 0.900700)" fill="#FFFFFF">
            <g id="twitter-white" transform="translate(1.000302, 1.000000)" fill-rule="nonzero">
                <path d="M42.1908936,0 L5.80850298,0 C2.60044812,0 4.87223179e-15,2.60118866 4.87223179e-15,5.80924354 L4.87223179e-15,42.1900433 C4.87223179e-15,45.3983767 2.60016962,48 5.80850298,48 L42.1908936,48 C45.3991841,48 47.9993966,45.3984436 47.9993966,42.190153 L47.9993966,5.80924354 C47.9993966,2.60118866 45.3989485,0 42.1908936,0 Z M37.4372802,17.8436248 C36.9341989,18.2268827 36.6508368,18.8323217 36.6788349,19.4641393 C36.575763,28.2647451 30.2450359,35.7556161 21.5847526,37.3243034 C17.304286,38.175056 12.8616397,37.5388661 8.9919601,35.5210072 C8.75628235,35.3963953 8.52759209,35.2589944 8.30691271,35.1094192 C8.25655449,35.0763133 8.24503463,34.9885156 8.15005069,34.7784154 C11.4005563,35.0255937 14.6322955,34.1021618 17.2614881,32.1749281 C14.5999673,31.9681829 12.3012564,30.2334812 11.3723736,27.73076 C12.1970032,27.6868748 12.8950242,27.6444159 13.5930177,27.6069764 C10.9076547,26.5794645 9.0924769,24.051119 8.97758771,21.178184 C9.84826934,21.4127777 10.5923423,21.6142928 11.3421477,21.8178926 C8.93316721,19.6714714 8.33306321,16.1423163 9.89720129,13.3202988 C15.3934339,18.0969245 19.8563904,20.2455969 23.2629761,19.8239154 C23.340006,18.678376 23.5152764,17.5415686 23.7868553,16.4260244 C24.4815766,14.4597239 26.0668742,12.9388812 28.0603017,12.3263275 C30.0537292,11.7137737 32.2195011,12.0819627 33.8985178,13.3188451 C34.5695151,13.9385172 35.5510596,14.0851795 36.3738879,13.6887148 C37.1798389,13.3591372 37.9915224,13.0612392 38.8032333,12.7467746 L39.0651455,12.9590691 C38.3700319,13.9117885 37.6749184,14.8659617 36.8560212,15.9898881 C37.8663125,15.7322548 38.7773137,15.5034485 39.6868885,15.272448 C39.7430067,15.3249731 39.7962448,15.3774981 39.8495105,15.4315317 C39.0506085,16.2411033 38.3022293,17.1096455 37.4372802,17.8436248 Z" id="Shape"></path>
            </g>
            <rect id="Rectangle-Copy-98" opacity="0.01" x="0" y="0" width="50" height="50"></rect>
        </g>
    </g>
</svg>